<?xml version="1.0" encoding="UTF-8"?>
<svg width="256px" height="256px" viewBox="0 0 256 256" version="1.1" xmlns="http://www.w3.org/2000/svg">
    <g stroke="none" stroke-width="1" fill="none" fill-rule="evenodd">
        <path d="M128,0 C198.692448,0 256,57.307552 256,128 C256,198.692448 198.692448,256 128,256 C57.307552,256 0,198.692448 0,128 C0,57.307552 57.307552,0 128,0 Z M128,32 C75.0527424,32 32,75.0527424 32,128 C32,180.947258 75.0527424,224 128,224 C180.947258,224 224,180.947258 224,128 C224,75.0527424 180.947258,32 128,32 Z M128,80 C154.509668,80 176,101.490332 176,128 C176,154.509668 154.509668,176 128,176 C101.490332,176 80,154.509668 80,128 C80,101.490332 101.490332,80 128,80 Z" fill="currentColor"></path>
    </g>
</svg>
